<svg width="201" height="24" viewBox="0 0 201 24" fill="none" xmlns="http://www.w3.org/2000/svg">
<mask id="mask0" mask-type="alpha" maskUnits="userSpaceOnUse" x="0" y="0" width="24" height="24">
<path fill-rule="evenodd" clip-rule="evenodd" d="M87.0145 85.1468H0V0L87.0145 0V85.1468Z" transform="translate(0 0.0753348) scale(0.272109)" fill="white"/>
</mask>
<g mask="url(#mask0)">
<path fill-rule="evenodd" clip-rule="evenodd" d="M68.8702 0.105457C65.6806 0.105457 62.9098 1.37286 61.2625 3.58937L0 85.1477H17.7341C21.1519 85.1477 24.4169 83.4968 26.4731 80.7243L87.0151 0L68.8702 0.105457Z" transform="translate(-0.000132866 0.0753348) scale(0.272109)" fill="white"/>
</g>
<path fill-rule="evenodd" clip-rule="evenodd" d="M75.0071 3.90223C73.453 1.59944 70.4016 0.019239 67.3004 0.000152722C64.1993 -0.0189336 61.4471 1.75283 59.5893 4.25887L0 85.1059H17.347C20.6855 85.1059 24.1092 83.2709 26.2865 80.3124L66.8179 25.3157L103.729 79.2386C105.575 81.946 109.106 85.1059 112.984 85.1059H129.239L75.0071 3.90223Z" transform="translate(13.7606 0.0862547) scale(0.272109)" fill="white"/>
<path fill-rule="evenodd" clip-rule="evenodd" d="M0 26.8589H35.6627L18.3236 0L0 26.8589Z" transform="translate(26.7668 15.936) scale(0.272109)" fill="white"/>
<path fill-rule="evenodd" clip-rule="evenodd" d="M2.88 84C2.08 84 1.4 83.72 0.84 83.16C0.279997 82.6 0 81.92 0 81.12V3C0 2.12 0.259997 1.4 0.78 0.84C1.3 0.279997 2 0 2.88 0H12.6C14.12 0 15.32 0.759992 16.2 2.28L39.36 45.24L62.52 2.28C63.4 0.759992 64.6 0 66.12 0H75.72C76.6 0 77.32 0.279997 77.88 0.84C78.44 1.4 78.72 2.12 78.72 3V81.12C78.72 82 78.44 82.7 77.88 83.22C77.32 83.74 76.6 84 75.72 84H65.4C64.6 84 63.92 83.72 63.36 83.16C62.8 82.6 62.52 81.92 62.52 81.12V29.52L45.84 61.2C44.96 62.96 43.64 63.84 41.88 63.84H36.84C35.16 63.84 33.8 62.96 32.76 61.2L16.08 29.52V81.12C16.08 81.92 15.82 82.6 15.3 83.16C14.78 83.72 14.08 84 13.2 84H2.88ZM110.28 84C109.56 84 108.96 83.76 108.48 83.28C108 82.8 107.76 82.2 107.76 81.48L108 80.4L136.8 3C137.6 0.99999 139.04 0 141.12 0H154.32C156.4 0 157.84 0.99999 158.64 3L187.44 80.4L187.68 81.48C187.68 82.2 187.42 82.8 186.9 83.28C186.38 83.76 185.8 84 185.16 84H174.48C172.8 84 171.64 83.24 171 81.72L165.48 67.2H129.96L124.44 81.72C123.8 83.24 122.64 84 120.96 84H110.28ZM134.16 53.28H161.28L147.72 16.32L134.16 53.28ZM229.32 84C228.52 84 227.84 83.72 227.28 83.16C226.72 82.6 226.44 81.92 226.44 81.12V15H204.24C203.44 15 202.76 14.72 202.2 14.16C201.64 13.6 201.36 12.88 201.36 12V3C201.36 2.12 201.62 1.4 202.14 0.84C202.66 0.279997 203.36 0 204.24 0H265.56C266.44 0 267.16 0.279997 267.72 0.84C268.28 1.4 268.56 2.12 268.56 3V12C268.56 12.88 268.28 13.6 267.72 14.16C267.16 14.72 266.44 15 265.56 15H243.48V81.12C243.48 81.92 243.22 82.6 242.7 83.16C242.18 83.72 241.48 84 240.6 84H229.32ZM301.56 84C300.76 84 300.08 83.72 299.52 83.16C298.96 82.6 298.68 81.92 298.68 81.12V3C298.68 2.12 298.94 1.4 299.46 0.84C299.98 0.279997 300.68 0 301.56 0H332.64C342.48 0 350.18 2.27998 355.74 6.84C361.3 11.4 364.08 17.88 364.08 26.28C364.08 32.12 362.68 37.02 359.88 40.98C357.08 44.94 353.16 47.8 348.12 49.56L365.52 80.16C365.76 80.64 365.88 81.08 365.88 81.48C365.88 82.2 365.62 82.8 365.1 83.28C364.58 83.76 364 84 363.36 84H352.32C351.04 84 350.04 83.7 349.32 83.1C348.6 82.5 347.96 81.72 347.4 80.76L332.04 52.32H315.6V81.12C315.6 81.92 315.32 82.6 314.76 83.16C314.2 83.72 313.48 84 312.6 84H301.56ZM332.28 38.64C337.08 38.64 340.68 37.58 343.08 35.46C345.48 33.34 346.68 30.24 346.68 26.16C346.68 22.08 345.48 18.94 343.08 16.74C340.68 14.54 337.08 13.44 332.28 13.44H315.6V38.64H332.28ZM400.44 84C399.64 84 398.96 83.72 398.4 83.16C397.84 82.6 397.56 81.92 397.56 81.12V2.88C397.56 2 397.84 1.3 398.4 0.78C398.96 0.259997 399.64 0 400.44 0H411.96C412.84 0 413.54 0.259997 414.06 0.78C414.58 1.3 414.84 2 414.84 2.88V81.12C414.84 81.92 414.58 82.6 414.06 83.16C413.54 83.72 412.84 84 411.96 84H400.44ZM446.76 84C446.12 84 445.54 83.76 445.02 83.28C444.5 82.8 444.24 82.2 444.24 81.48C444.24 81.16 444.4 80.68 444.72 80.04L471.48 41.16L446.4 3.96C446.08 3.48 445.92 3 445.92 2.52C445.92 1.8 446.18 1.2 446.7 0.72C447.22 0.239998 447.8 0 448.44 0H461.04C462.48 0 463.72 0.759992 464.76 2.28L482.28 27.96L499.92 2.28C500.8 0.759992 502.04 0 503.64 0H515.52C516.16 0 516.74 0.239998 517.26 0.72C517.78 1.2 518.04 1.8 518.04 2.52C518.04 2.84 517.88 3.32 517.56 3.96L492.48 41.16L519.36 80.04C519.6 80.52 519.72 81 519.72 81.48C519.72 82.2 519.48 82.8 519 83.28C518.52 83.76 517.92 84 517.2 84H504.36C502.92 84 501.68 83.28 500.64 81.84L481.68 54.84L462.96 81.84C461.92 83.28 460.68 84 459.24 84H446.76Z" transform="translate(58.4489 0.544218) scale(0.272109)" fill="white"/>
</svg>
