<svg width="194" height="35" viewBox="0 0 194 35" fill="none" xmlns="http://www.w3.org/2000/svg">
<mask id="mask0" mask-type="alpha" maskUnits="userSpaceOnUse" x="0" y="0" width="35" height="35">
<path fill-rule="evenodd" clip-rule="evenodd" d="M34.8977 34.1184H0V0L34.8977 0V34.1184Z" transform="translate(0 0.411591)" fill="white"/>
</mask>
<g mask="url(#mask0)">
<path fill-rule="evenodd" clip-rule="evenodd" d="M27.6208 0.0422567C26.3416 0.0422567 25.2304 0.550105 24.5697 1.43826L0 34.1188H7.11237C8.4831 34.1188 9.79254 33.4573 10.6172 32.3463L34.898 0L27.6208 0.0422567Z" transform="translate(-0.000595093 0.411591)" fill="white"/>
</g>
<path fill-rule="evenodd" clip-rule="evenodd" d="M30.0821 1.56363C29.4588 0.640897 28.235 0.0077091 26.9913 6.11958e-05C25.7475 -0.00758671 24.6437 0.702362 23.8987 1.70653L0 34.102H6.95715C8.29604 34.102 9.66916 33.3668 10.5424 32.1813L26.7977 10.144L41.6012 31.751C42.3415 32.8359 43.7576 34.102 45.313 34.102H51.8323L30.0821 1.56363Z" transform="translate(20.2816 0.427643)" fill="white"/>
<path fill-rule="evenodd" clip-rule="evenodd" d="M0 10.7624H14.3027L7.34879 0L0 10.7624Z" transform="translate(39.4512 23.7676)" fill="white"/>
<path fill-rule="evenodd" clip-rule="evenodd" d="M0.608072 17.7354C0.439162 17.7354 0.295591 17.6763 0.177354 17.5581C0.0591175 17.4398 0 17.2963 0 17.1274V0.633408C0 0.447608 0.0548948 0.295591 0.164686 0.177354C0.274478 0.0591175 0.422271 0 0.608072 0H2.66032C2.98124 0 3.2346 0.160462 3.42041 0.48139L8.31032 9.5518L13.2002 0.48139C13.386 0.160462 13.6394 0 13.9603 0H15.9872C16.173 0 16.325 0.0591175 16.4433 0.177354C16.5615 0.295591 16.6206 0.447608 16.6206 0.633408V17.1274C16.6206 17.3132 16.5615 17.461 16.4433 17.5707C16.325 17.6805 16.173 17.7354 15.9872 17.7354H13.8083C13.6394 17.7354 13.4958 17.6763 13.3776 17.5581C13.2593 17.4398 13.2002 17.2963 13.2002 17.1274V6.23274L9.67848 12.9215C9.49268 13.2931 9.21398 13.4789 8.84238 13.4789H7.77825C7.42354 13.4789 7.1364 13.2931 6.91682 12.9215L3.39507 6.23274V17.1274C3.39507 17.2963 3.34017 17.4398 3.23038 17.5581C3.12059 17.6763 2.9728 17.7354 2.787 17.7354H0.608072ZM23.2841 17.7354C23.1321 17.7354 23.0054 17.6848 22.904 17.5834C22.8027 17.4821 22.752 17.3554 22.752 17.2034L22.8027 16.9753L28.8834 0.633408C29.0523 0.211134 29.3563 0 29.7955 0H32.5825C33.0217 0 33.3257 0.211134 33.4946 0.633408L39.5753 16.9753L39.626 17.2034C39.626 17.3554 39.5711 17.4821 39.4613 17.5834C39.3515 17.6848 39.2291 17.7354 39.0939 17.7354H36.839C36.4843 17.7354 36.2394 17.575 36.1043 17.254L34.9388 14.1883H27.4392L26.2738 17.254C26.1386 17.575 25.8937 17.7354 25.539 17.7354H23.2841ZM28.326 11.2493H34.052L31.189 3.44574L28.326 11.2493ZM48.4177 17.7354C48.2488 17.7354 48.1052 17.6763 47.987 17.5581C47.8688 17.4398 47.8096 17.2963 47.8096 17.1274V3.16704H43.1224C42.9535 3.16704 42.8099 3.10792 42.6917 2.98969C42.5735 2.87145 42.5144 2.71943 42.5144 2.53363V0.633408C42.5144 0.447608 42.5692 0.295591 42.679 0.177354C42.7888 0.0591175 42.9366 0 43.1224 0H56.0693C56.2551 0 56.4071 0.0591175 56.5253 0.177354C56.6436 0.295591 56.7027 0.447608 56.7027 0.633408V2.53363C56.7027 2.71943 56.6436 2.87145 56.5253 2.98969C56.4071 3.10792 56.2551 3.16704 56.0693 3.16704H51.4074V17.1274C51.4074 17.2963 51.3525 17.4398 51.2427 17.5581C51.1329 17.6763 50.9851 17.7354 50.7993 17.7354H48.4177ZM63.6702 17.7354C63.5013 17.7354 63.3577 17.6763 63.2395 17.5581C63.1212 17.4398 63.0621 17.2963 63.0621 17.1274V0.633408C63.0621 0.447608 63.117 0.295591 63.2268 0.177354C63.3366 0.0591175 63.4844 0 63.6702 0H70.2323C72.3099 0 73.9356 0.481386 75.1095 1.44417C76.2835 2.40696 76.8704 3.77511 76.8704 5.54866C76.8704 6.7817 76.5748 7.81625 75.9836 8.65236C75.3925 9.48846 74.5648 10.0923 73.5007 10.4639L77.1745 16.9247C77.2251 17.026 77.2505 17.1189 77.2505 17.2034C77.2505 17.3554 77.1956 17.4821 77.0858 17.5834C76.976 17.6848 76.8535 17.7354 76.7184 17.7354H74.3875C74.1172 17.7354 73.9061 17.6721 73.7541 17.5454C73.602 17.4187 73.4669 17.254 73.3487 17.0514L70.1056 11.0466H66.6345V17.1274C66.6345 17.2963 66.5754 17.4398 66.4572 17.5581C66.339 17.6763 66.1869 17.7354 66.0011 17.7354H63.6702ZM70.1563 8.15831C71.1698 8.15831 71.9298 7.9345 72.4366 7.48689C72.9433 7.03928 73.1967 6.38477 73.1967 5.52333C73.1967 4.66189 72.9433 3.99893 72.4366 3.53443C71.9298 3.06992 71.1698 2.83768 70.1563 2.83768H66.6345V8.15831H70.1563ZM84.5473 17.7354C84.3784 17.7354 84.2348 17.6763 84.1166 17.5581C83.9984 17.4398 83.9393 17.2963 83.9393 17.1274V0.608072C83.9393 0.422271 83.9984 0.274477 84.1166 0.164686C84.2348 0.0548948 84.3784 0 84.5473 0H86.9796C87.1654 0 87.3132 0.0548948 87.423 0.164686C87.5328 0.274477 87.5877 0.422271 87.5877 0.608072V17.1274C87.5877 17.2963 87.5328 17.4398 87.423 17.5581C87.3132 17.6763 87.1654 17.7354 86.9796 17.7354H84.5473ZM94.3272 17.7354C94.192 17.7354 94.0696 17.6848 93.9598 17.5834C93.85 17.4821 93.7951 17.3554 93.7951 17.2034C93.7951 17.1358 93.8289 17.0345 93.8964 16.8993L99.5464 8.69036L94.2511 0.836099C94.1836 0.734753 94.1498 0.633409 94.1498 0.532063C94.1498 0.380044 94.2047 0.253364 94.3145 0.152018C94.4243 0.0506722 94.5467 0 94.6819 0H97.3422C97.6462 0 97.908 0.160462 98.1276 0.48139L101.827 5.90337L105.551 0.48139C105.737 0.160462 105.999 0 106.337 0H108.845C108.98 0 109.102 0.0506722 109.212 0.152018C109.322 0.253364 109.377 0.380044 109.377 0.532063C109.377 0.599627 109.343 0.700971 109.276 0.836099L103.98 8.69036L109.656 16.8993C109.706 17.0007 109.732 17.102 109.732 17.2034C109.732 17.3554 109.681 17.4821 109.58 17.5834C109.478 17.6848 109.352 17.7354 109.2 17.7354H106.489C106.185 17.7354 105.923 17.5834 105.703 17.2794L101.7 11.5787L97.7476 17.2794C97.528 17.5834 97.2662 17.7354 96.9621 17.7354H94.3272Z" transform="translate(83.3475)" fill="white"/>
<path d="M0.238829 7.70766C0.166456 7.70766 0.108559 7.68595 0.0651351 7.64253C0.0217117 7.59186 0 7.53035 0 7.45798V0.369099C0 0.289489 0.0217117 0.227973 0.0651351 0.184549C0.108559 0.133889 0.166456 0.108558 0.238829 0.108558H2.98536C3.80317 0.108558 4.44366 0.307583 4.90685 0.705631C5.37727 1.09644 5.61248 1.66818 5.61248 2.42086C5.61248 3.17353 5.37727 3.74527 4.90685 4.13608C4.44366 4.52689 3.80317 4.7223 2.98536 4.7223H1.03131V7.45798C1.03131 7.53035 1.00598 7.59186 0.955315 7.64253C0.911892 7.68595 0.853994 7.70766 0.781622 7.70766H0.238829ZM2.93108 3.84297C4.0239 3.84297 4.57032 3.36893 4.57032 2.42086C4.57032 1.95767 4.43281 1.60305 4.15779 1.35698C3.89002 1.11092 3.48111 0.987883 2.93108 0.987883H1.03131V3.84297H2.93108Z" transform="translate(84.0531 26.0469)" fill="#E4ACF8"/>
<path d="M16.2596 7.81622C15.3187 7.81622 14.5914 7.57015 14.0775 7.07802C13.5637 6.57865 13.2923 5.8296 13.2633 4.83086C13.2561 4.61374 13.2525 4.30616 13.2525 3.90811C13.2525 3.51006 13.2561 3.2061 13.2633 2.99622C13.2923 2.01195 13.5709 1.26652 14.0992 0.75991C14.6348 0.253303 15.3549 0 16.2596 0C17.1642 0 17.8807 0.253303 18.409 0.75991C18.9373 1.26652 19.216 2.01195 19.2449 2.99622C19.2594 3.41598 19.2666 3.71994 19.2666 3.90811C19.2666 4.08904 19.2594 4.39662 19.2449 4.83086C19.216 5.8296 18.9446 6.57865 18.4307 7.07802C17.9241 7.57015 17.2004 7.81622 16.2596 7.81622ZM16.2596 6.91518C16.8385 6.91518 17.3017 6.74149 17.6491 6.3941C17.9965 6.03948 18.1847 5.5003 18.2136 4.77658C18.2281 4.34234 18.2353 4.05285 18.2353 3.90811C18.2353 3.74889 18.2281 3.4594 18.2136 3.03964C18.1847 2.31592 17.9965 1.77674 17.6491 1.42212C17.3017 1.06749 16.8385 0.89018 16.2596 0.89018C15.6806 0.89018 15.2138 1.06749 14.8591 1.42212C14.5118 1.77674 14.3272 2.31592 14.3055 3.03964C14.2983 3.24952 14.2946 3.53901 14.2946 3.90811C14.2946 4.26997 14.2983 4.55946 14.3055 4.77658C14.3272 5.5003 14.5118 6.03948 14.8591 6.3941C15.2065 6.74149 15.6733 6.91518 16.2596 6.91518Z" transform="translate(84.0531 26.0469)" fill="#E4ACF8"/>
<path d="M27.7011 7.70766C27.6287 7.70766 27.5708 7.68595 27.5274 7.64253C27.4839 7.59186 27.4622 7.53035 27.4622 7.45798V0.369099C27.4622 0.289489 27.4839 0.227973 27.5274 0.184549C27.5708 0.133889 27.6287 0.108558 27.7011 0.108558H30.3499C31.1749 0.108558 31.8191 0.303964 32.2822 0.694774C32.7527 1.07835 32.9879 1.63923 32.9879 2.37743C32.9879 2.92746 32.8504 3.37979 32.5753 3.73442C32.3003 4.08904 31.9168 4.33511 31.4246 4.47261L33.0964 7.37113C33.1181 7.41455 33.129 7.45436 33.129 7.49054C33.129 7.54844 33.1073 7.5991 33.0639 7.64253C33.0204 7.68595 32.9698 7.70766 32.9119 7.70766H32.4342C32.3257 7.70766 32.2388 7.68233 32.1737 7.63167C32.1158 7.58101 32.0615 7.50864 32.0108 7.41455L30.415 4.63545H28.4827V7.45798C28.4827 7.53035 28.4574 7.59186 28.4067 7.64253C28.356 7.68595 28.2945 7.70766 28.2221 7.70766H27.7011ZM30.3065 3.74527C31.3993 3.74527 31.9457 3.28571 31.9457 2.36658C31.9457 1.44745 31.3993 0.987883 30.3065 0.987883H28.4827V3.74527H30.3065Z" transform="translate(84.0531 26.0469)" fill="#E4ACF8"/>
<path d="M42.9715 7.70766C42.8991 7.70766 42.8376 7.68595 42.7869 7.64253C42.7435 7.59186 42.7218 7.53035 42.7218 7.45798V1.04216H40.6266C40.5542 1.04216 40.4927 1.02045 40.442 0.977027C40.3986 0.926366 40.3769 0.86485 40.3769 0.792477V0.369099C40.3769 0.289489 40.3986 0.227973 40.442 0.184549C40.4927 0.133889 40.5542 0.108558 40.6266 0.108558H45.8374C45.917 0.108558 45.9785 0.133889 46.022 0.184549C46.0654 0.227973 46.0871 0.289489 46.0871 0.369099V0.792477C46.0871 0.86485 46.0618 0.926366 46.0111 0.977027C45.9677 1.02045 45.9098 1.04216 45.8374 1.04216H43.7531V7.45798C43.7531 7.53035 43.7278 7.59186 43.6771 7.64253C43.6264 7.68595 43.5649 7.70766 43.4925 7.70766H42.9715Z" transform="translate(84.0531 26.0469)" fill="#E4ACF8"/>
<path d="M54.1562 7.70766C54.0838 7.70766 54.0259 7.68595 53.9825 7.64253C53.939 7.59186 53.9173 7.53035 53.9173 7.45798V0.369099C53.9173 0.289489 53.939 0.227973 53.9825 0.184549C54.0259 0.133889 54.0838 0.108558 54.1562 0.108558H58.5636C58.6432 0.108558 58.7048 0.133889 58.7482 0.184549C58.7988 0.227973 58.8242 0.289489 58.8242 0.369099V0.770766C58.8242 0.843138 58.7988 0.904655 58.7482 0.955316C58.7048 0.998739 58.6432 1.02045 58.5636 1.02045H54.9269V3.59329H58.3465C58.4261 3.59329 58.4876 3.61862 58.5311 3.66928C58.5817 3.7127 58.6071 3.7706 58.6071 3.84297V4.2555C58.6071 4.32787 58.5817 4.38939 58.5311 4.44005C58.4804 4.48347 58.4189 4.50518 58.3465 4.50518H54.9269V7.45798C54.9269 7.53035 54.9016 7.59186 54.8509 7.64253C54.8003 7.68595 54.7388 7.70766 54.6664 7.70766H54.1562Z" transform="translate(84.0531 26.0469)" fill="#E4ACF8"/>
<path d="M69.4984 7.81622C68.5575 7.81622 67.8302 7.57015 67.3164 7.07802C66.8025 6.57865 66.5311 5.8296 66.5022 4.83086C66.4949 4.61374 66.4913 4.30616 66.4913 3.90811C66.4913 3.51006 66.4949 3.2061 66.5022 2.99622C66.5311 2.01195 66.8098 1.26652 67.3381 0.75991C67.8736 0.253303 68.5937 0 69.4984 0C70.403 0 71.1195 0.253303 71.6478 0.75991C72.1762 1.26652 72.4548 2.01195 72.4838 2.99622C72.4982 3.41598 72.5055 3.71994 72.5055 3.90811C72.5055 4.08904 72.4982 4.39662 72.4838 4.83086C72.4548 5.8296 72.1834 6.57865 71.6696 7.07802C71.163 7.57015 70.4392 7.81622 69.4984 7.81622ZM69.4984 6.91518C70.0774 6.91518 70.5406 6.74149 70.8879 6.3941C71.2353 6.03948 71.4235 5.5003 71.4524 4.77658C71.4669 4.34234 71.4742 4.05285 71.4742 3.90811C71.4742 3.74889 71.4669 3.4594 71.4524 3.03964C71.4235 2.31592 71.2353 1.77674 70.8879 1.42212C70.5406 1.06749 70.0774 0.89018 69.4984 0.89018C68.9194 0.89018 68.4526 1.06749 68.098 1.42212C67.7506 1.77674 67.566 2.31592 67.5443 3.03964C67.5371 3.24952 67.5335 3.53901 67.5335 3.90811C67.5335 4.26997 67.5371 4.55946 67.5443 4.77658C67.566 5.5003 67.7506 6.03948 68.098 6.3941C68.4454 6.74149 68.9122 6.91518 69.4984 6.91518Z" transform="translate(84.0531 26.0469)" fill="#E4ACF8"/>
<path d="M80.9399 7.70766C80.8675 7.70766 80.8096 7.68595 80.7662 7.64253C80.7228 7.59186 80.7011 7.53035 80.7011 7.45798V0.358243C80.7011 0.285871 80.7228 0.227973 80.7662 0.184549C80.8096 0.133889 80.8675 0.108558 80.9399 0.108558H81.4827C81.5551 0.108558 81.613 0.133889 81.6564 0.184549C81.6998 0.227973 81.7215 0.285871 81.7215 0.358243V6.79577H85.3474C85.427 6.79577 85.4885 6.8211 85.5319 6.87176C85.5826 6.91518 85.6079 6.97308 85.6079 7.04545V7.45798C85.6079 7.53035 85.5826 7.59186 85.5319 7.64253C85.4813 7.68595 85.4197 7.70766 85.3474 7.70766H80.9399Z" transform="translate(84.0531 26.0469)" fill="#E4ACF8"/>
<path d="M93.6162 7.70766C93.5438 7.70766 93.4859 7.68595 93.4425 7.64253C93.3991 7.59186 93.3773 7.53035 93.3773 7.45798V0.358243C93.3773 0.285871 93.3991 0.227973 93.4425 0.184549C93.4859 0.133889 93.5438 0.108558 93.6162 0.108558H94.159C94.2386 0.108558 94.3001 0.13027 94.3435 0.173693C94.3869 0.217117 94.4086 0.278633 94.4086 0.358243V7.45798C94.4086 7.53035 94.3833 7.59186 94.3327 7.64253C94.2892 7.68595 94.2313 7.70766 94.159 7.70766H93.6162Z" transform="translate(84.0531 26.0469)" fill="#E4ACF8"/>
<path d="M105.63 7.81622C104.689 7.81622 103.961 7.57015 103.448 7.07802C102.934 6.57865 102.662 5.8296 102.633 4.83086C102.626 4.61374 102.622 4.30616 102.622 3.90811C102.622 3.51006 102.626 3.2061 102.633 2.99622C102.662 2.01195 102.941 1.26652 103.469 0.75991C104.005 0.253303 104.725 0 105.63 0C106.534 0 107.251 0.253303 107.779 0.75991C108.307 1.26652 108.586 2.01195 108.615 2.99622C108.629 3.41598 108.637 3.71994 108.637 3.90811C108.637 4.08904 108.629 4.39662 108.615 4.83086C108.586 5.8296 108.315 6.57865 107.801 7.07802C107.294 7.57015 106.57 7.81622 105.63 7.81622ZM105.63 6.91518C106.209 6.91518 106.672 6.74149 107.019 6.3941C107.367 6.03948 107.555 5.5003 107.584 4.77658C107.598 4.34234 107.605 4.05285 107.605 3.90811C107.605 3.74889 107.598 3.4594 107.584 3.03964C107.555 2.31592 107.367 1.77674 107.019 1.42212C106.672 1.06749 106.209 0.89018 105.63 0.89018C105.051 0.89018 104.584 1.06749 104.229 1.42212C103.882 1.77674 103.697 2.31592 103.676 3.03964C103.668 3.24952 103.665 3.53901 103.665 3.90811C103.665 4.26997 103.668 4.55946 103.676 4.77658C103.697 5.5003 103.882 6.03948 104.229 6.3941C104.577 6.74149 105.043 6.91518 105.63 6.91518Z" transform="translate(84.0531 26.0469)" fill="#E4ACF8"/>
</svg>
