<svg width="22" height="18" viewBox="0 0 22 18" fill="none" xmlns="http://www.w3.org/2000/svg">
<path d="M22.4531 6C21.6719 6.34375 20.8594 6.57812 20.0156 6.70312C20.9219 6.14062 21.5469 5.34375 21.8906 4.3125C21.0469 4.8125 20.1406 5.15625 19.1719 5.34375C18.3594 4.46875 17.2969 4.01563 15.9844 3.98438C14.7969 4.01563 13.7969 4.4375 12.9844 5.25C12.1719 6.0625 11.75 7.07812 11.7188 8.29688C11.7188 8.64062 11.7656 8.96875 11.8594 9.28125C10.0469 9.15625 8.375 8.70312 6.84375 7.92188C5.34375 7.14062 4.0625 6.09375 3 4.78125C2.625 5.4375 2.4375 6.15625 2.4375 6.9375C2.4375 7.6875 2.60938 8.375 2.95312 9C3.29688 9.625 3.75 10.125 4.3125 10.5C3.59375 10.4688 2.95312 10.2969 2.39062 9.98438V10.0312C2.39062 11.0938 2.70312 12.0156 3.32812 12.7969C3.98438 13.5469 4.8125 14.0312 5.8125 14.25C5.46875 14.3438 5.09375 14.3906 4.6875 14.3906C4.40625 14.3906 4.14062 14.3594 3.89062 14.2969C4.17188 15.1719 4.67188 15.8906 5.39062 16.4531C6.10938 16.9844 6.9375 17.2656 7.875 17.2969C7.15625 17.8906 6.34375 18.3438 5.4375 18.6562C4.53125 18.9688 3.57812 19.125 2.57812 19.125C2.23438 19.125 1.89062 19.1094 1.54688 19.0781C2.48438 19.6719 3.5 20.1406 4.59375 20.4844C5.71875 20.8281 6.89062 21 8.10938 21C12.0781 20.8438 15.0938 19.5156 17.1562 17.0156C19.25 14.5156 20.3125 11.7812 20.3438 8.8125L20.2969 8.25C21.1406 7.625 21.8594 6.875 22.4531 6Z" transform="translate(-1 -3)" fill="white"/>
</svg>
