<svg width="20" height="19" viewBox="0 0 20 19" fill="none" xmlns="http://www.w3.org/2000/svg">
<path d="M21.9844 11.4844C21.9844 10.7656 21.75 10.1875 21.2812 9.75C20.8125 9.28125 20.2188 9.03125 19.5 9C18.875 9 18.3438 9.20312 17.9062 9.60938C16.4062 8.67188 14.6094 8.14062 12.5156 8.01562L13.5938 3.98438L17.0156 5.01562C17.0156 5.57812 17.2031 6.04688 17.5781 6.42188C17.9531 6.79688 18.4219 6.98438 18.9844 6.98438C19.5469 6.98438 20.0156 6.79688 20.3906 6.42188C20.7969 6.04688 21 5.57812 21 5.01562C21 4.45312 20.7969 3.98438 20.3906 3.60938C20.0156 3.20312 19.5469 3 18.9844 3C18.6406 3 18.3125 3.09375 18 3.28125C17.6875 3.46875 17.4531 3.70312 17.2969 3.98438L13.3125 3C13 2.9375 12.7969 3.07813 12.7031 3.42188L11.4844 8.01562C10.4844 8.04688 9.51562 8.20312 8.57812 8.48438C7.67188 8.76562 6.84375 9.14062 6.09375 9.60938C5.65625 9.20312 5.125 9 4.5 9C3.78125 9.03125 3.1875 9.28125 2.71875 9.75C2.25 10.1875 2.01562 10.7656 2.01562 11.4844C2.01562 12.3906 2.375 13.0938 3.09375 13.5938L3 14.4844C3.0625 16.3281 3.9375 17.875 5.625 19.125C7.3125 20.3438 9.4375 20.9688 12 21C14.5625 20.9688 16.6875 20.3438 18.375 19.125C20.0625 17.875 20.9375 16.3281 21 14.4844L20.9062 13.5938C21.625 13.0938 21.9844 12.3906 21.9844 11.4844ZM9 11.8125C9.34375 11.8125 9.625 11.9375 9.84375 12.1875C10.0625 12.4062 10.1719 12.6719 10.1719 12.9844C10.1719 13.2969 10.0625 13.5781 9.84375 13.8281C9.625 14.0781 9.34375 14.2031 9 14.2031C8.65625 14.2031 8.375 14.0938 8.15625 13.875C7.9375 13.6562 7.82812 13.375 7.82812 13.0312C7.82812 12.6562 7.9375 12.3594 8.15625 12.1406C8.375 11.9219 8.65625 11.8125 9 11.8125ZM15.7969 17.2031C14.7969 17.7656 13.5312 18.0469 12 18.0469C10.4688 18.0469 9.20312 17.7656 8.20312 17.2031C8.10938 17.1094 8.04688 17 8.01562 16.875C7.98438 16.7188 8.01562 16.5938 8.10938 16.5C8.20312 16.4062 8.3125 16.3438 8.4375 16.3125C8.5625 16.2812 8.6875 16.3125 8.8125 16.4062C9.53125 16.8438 10.5938 17.0625 12 17.0625C13.4062 17.0625 14.4688 16.8438 15.1875 16.4062C15.3125 16.3125 15.4375 16.2812 15.5625 16.3125C15.6875 16.3438 15.7969 16.4062 15.8906 16.5C15.9844 16.5938 16.0156 16.7188 15.9844 16.875C15.9531 17 15.8906 17.1094 15.7969 17.2031ZM15 14.2031C14.6562 14.2031 14.375 14.0781 14.1562 13.8281C13.9375 13.5781 13.8281 13.2969 13.8281 12.9844C13.8281 12.6406 13.9375 12.3594 14.1562 12.1406C14.4062 11.9219 14.6875 11.8125 15 11.8125C15.3438 11.8125 15.625 11.9375 15.8438 12.1875C16.0625 12.4062 16.1719 12.6875 16.1719 13.0312C16.1719 13.375 16.0625 13.6562 15.8438 13.875C15.625 14.0938 15.3438 14.2031 15 14.2031Z" transform="translate(-2 -2)" fill="white"/>
</svg>
