<svg width="20" height="18" viewBox="0 0 20 18" fill="none" xmlns="http://www.w3.org/2000/svg">
<path d="M21.9375 6.60938L15.8906 16.4531L11.5781 9.42188L15 3.84375C15.2188 3.5625 15.4844 3.46875 15.7969 3.5625L21.9375 6.60938ZM21.9844 19.7812C21.9844 20.0625 21.875 20.25 21.6562 20.3438C21.4688 20.4375 21.2188 20.4062 20.9062 20.25L16.1719 17.9062L21.9844 8.39062V19.7812ZM9 19.9219C9 20.2031 8.90625 20.4062 8.71875 20.5312C8.53125 20.625 8.3125 20.6094 8.0625 20.4844L2.53125 17.7656C2.375 17.6719 2.25 17.5469 2.15625 17.3906C2.0625 17.2031 2.01562 17.0312 2.01562 16.875V4.125C2.04688 3.65625 2.28125 3.51562 2.71875 3.70312L8.71875 6.65625L9 7.125V19.9219ZM15.2812 17.4375L9.98438 14.8125V8.8125L15.2812 17.4375Z" transform="translate(-2 -3)" fill="white"/>
</svg>
